<?xml version="1.0" standalone="no"?>
<!DOCTYPE svg PUBLIC "-//W3C//DTD SVG 20010904//EN"
 "http://www.w3.org/TR/2001/REC-SVG-20010904/DTD/svg10.dtd">
<svg version="1.0" xmlns="http://www.w3.org/2000/svg"
 width="500.000000pt" height="163.000000pt" viewBox="0 0 500.000000 163.000000"
 preserveAspectRatio="xMidYMid meet">

<g transform="translate(0.000000,163.000000) scale(0.100000,-0.100000)"
fill="#000000" stroke="none">
<path d="M0 815 l0 -815 2500 0 2500 0 0 815 0 815 -2500 0 -2500 0 0 -815z
m4189 625 c34 0 -20 -528 -59 -582 -35 -47 -22 -54 23 -11 107 103 293 233
334 233 40 0 73 -42 73 -93 0 -24 -6 -50 -12 -59 -7 -9 -44 -26 -83 -38 -131
-42 -295 -121 -295 -142 0 -3 22 -30 49 -60 58 -63 132 -110 233 -147 66 -24
73 -29 76 -56 5 -40 -24 -91 -64 -116 -32 -19 -34 -19 -66 -3 -82 42 -181 136
-249 237 -15 21 -29 35 -32 30 -2 -4 -10 -60 -17 -123 -7 -63 -17 -123 -21
-132 -19 -37 -145 -35 -193 3 l-25 19 25 73 c32 94 96 351 125 503 l22 122
-19 141 -20 141 23 21 c25 25 108 50 138 44 11 -3 26 -5 34 -5z m-3527 -482
l3 -242 195 242 195 241 123 0 c67 1 122 -3 122 -8 0 -4 -95 -125 -210 -267
-116 -142 -209 -262 -208 -266 2 -4 85 -104 186 -223 l184 -216 216 6 c287 8
2876 55 3025 55 l117 0 6 -26 c4 -16 2 -31 -7 -39 -11 -11 -419 -21 -2104 -53
-1313 -25 -2097 -36 -2108 -30 -12 6 -17 18 -15 36 2 21 11 29 36 37 l32 9 0
486 c0 268 3 490 7 493 3 4 51 7 104 7 l99 0 2 -242z m919 95 c17 -15 44 -44
59 -65 l28 -38 6 38 c18 101 10 92 87 92 70 0 123 -17 131 -42 3 -9 19 -5 56
15 42 23 62 27 104 25 l53 -3 3 -53 c2 -43 -2 -62 -22 -96 -14 -24 -22 -46
-19 -50 4 -3 51 41 106 99 109 116 107 115 180 68 42 -26 87 -107 87 -155 0
-22 -8 -32 -40 -48 -68 -35 -150 -22 -150 23 0 13 -6 31 -13 41 -11 15 -19 10
-83 -56 l-71 -73 -6 -80 c-4 -44 -14 -135 -23 -203 -16 -114 -19 -124 -41
-133 -51 -19 -158 -4 -183 27 -11 12 -6 37 25 137 21 67 49 163 61 212 23 89
23 91 6 183 -9 50 -19 92 -22 92 -3 0 -30 -45 -59 -101 l-53 -101 -9 -136 c-4
-75 -8 -176 -9 -223 0 -81 -1 -87 -22 -93 -54 -14 -145 2 -186 32 l-23 18 30
69 c16 39 26 74 22 78 -5 5 -51 -35 -102 -88 l-94 -97 -52 5 c-78 8 -151 51
-188 111 -57 93 -43 248 31 369 33 52 118 141 162 169 40 25 136 57 174 57 15
1 40 -11 59 -26z m1047 -36 c2 -46 -2 -65 -19 -93 -12 -19 -19 -38 -15 -41 3
-3 45 32 94 78 113 108 144 125 198 110 45 -12 133 -67 141 -88 3 -7 -7 -31
-21 -53 -14 -22 -23 -40 -20 -40 3 0 32 23 63 52 31 28 83 71 116 95 52 39 63
44 94 38 53 -10 104 -39 144 -84 51 -56 54 -77 22 -168 -25 -71 -28 -95 -32
-270 -5 -184 -6 -192 -27 -197 -52 -14 -133 1 -174 33 l-21 16 24 142 c13 79
34 183 46 233 20 85 20 92 4 116 -9 14 -23 28 -30 31 -19 7 -87 -34 -152 -92
-45 -39 -53 -53 -64 -103 -7 -31 -15 -127 -18 -212 l-6 -154 -38 -9 c-48 -12
-115 -2 -145 21 l-23 18 30 154 c17 85 42 194 55 241 25 93 24 100 -26 138
-24 18 -63 -7 -151 -96 l-67 -69 -16 -134 c-21 -185 -32 -252 -43 -263 -21
-21 -116 -20 -165 1 -25 12 -46 25 -46 30 0 5 11 42 25 83 14 41 42 132 62
203 l36 130 -18 102 c-10 56 -14 107 -11 113 17 28 82 51 136 48 l55 -2 3 -58z"/>
<path d="M603 371 c-73 -83 -133 -152 -133 -155 0 -8 368 -5 448 3 l63 6 -116
145 c-65 80 -120 146 -124 147 -3 2 -66 -64 -138 -146z"/>
<path d="M1466 922 c-97 -73 -152 -190 -144 -303 4 -59 32 -114 57 -114 6 0
62 43 124 97 l113 96 13 70 c10 55 10 76 1 94 -19 35 -82 98 -100 98 -8 0 -37
-17 -64 -38z"/>
</g>
</svg>
